<svg width="32" height="32" viewBox="13 10 38 38" fill="none" xmlns="http://www.w3.org/2000/svg">
  <!-- Top-Left Purple Diamond -->
  <path d="M19.786 12.7412C19.8009 12.7442 19.8069 12.7472 19.8188 12.7501L28.7108 15.1317C29.9849 15.471 30.9762 16.4683 31.3186 17.7365L33.7001 26.6285C33.7001 26.6285 33.7061 26.6463 33.709 26.6612C34.2598 28.8046 32.2533 30.811 30.11 30.2603C30.0951 30.2573 30.0861 30.2573 30.0772 30.2514L21.1852 27.8698C19.9111 27.5305 18.9198 26.5362 18.5774 25.2621L16.1959 16.3701C16.1959 16.3701 16.1899 16.3522 16.187 16.3373C15.6362 14.1939 17.6427 12.1875 19.786 12.7382V12.7412Z" fill="#7064A8"/>
  <!-- Bottom-Left Blue Diamond -->
  <path d="M19.786 30.6118C19.8009 30.6148 19.8069 30.6178 19.8188 30.6207L28.7108 33.0023C29.9849 33.3416 30.9762 34.3389 31.3186 35.6071L33.7001 44.4991C33.7001 44.4991 33.7061 44.5169 33.709 44.5318C34.2598 46.6752 32.2533 48.6816 30.11 48.1309C30.0951 48.1279 30.0861 48.1279 30.0772 48.122L21.1852 45.7404C19.9111 45.4011 18.9198 44.4068 18.5774 43.1327L16.1959 34.2407C16.1959 34.2407 16.1899 34.2228 16.187 34.2079C15.6362 32.0645 17.6427 30.0581 19.786 30.6088V30.6118Z" fill="#3C7BBB"/>
  <!-- Top-Right Yellow Diamond -->
  <path d="M37.6554 12.7412C37.6703 12.7442 37.6763 12.7472 37.6882 12.7501L46.5802 15.1317C47.8543 15.471 48.8456 16.4683 49.188 17.7365L51.5695 26.6285C51.5695 26.6285 51.5754 26.6463 51.5784 26.6612C52.1291 28.8046 50.1227 30.811 47.9793 30.2603C47.9644 30.2573 47.9555 30.2573 47.9466 30.2514L39.0546 27.8698C37.7805 27.5305 36.7891 26.5362 36.4468 25.2621L34.0653 16.3701C34.0653 16.3701 34.0593 16.3522 34.0563 16.3373C33.5056 14.1939 35.5121 12.1875 37.6554 12.7382V12.7412Z" fill="#F1C746"/>
  <!-- Bottom-Right Coral Diamond -->
  <path d="M37.6554 30.6118C37.6703 30.6148 37.6763 30.6178 37.6882 30.6207L46.5802 33.0023C47.8543 33.3416 48.8456 34.3389 49.188 35.6071L51.5695 44.4991C51.5695 44.4991 51.5754 44.5169 51.5784 44.5318C52.1291 46.6752 50.1227 48.6816 47.9793 48.1309C47.9644 48.1279 47.9555 48.1279 47.9466 48.122L39.0546 45.7404C37.7805 45.4011 36.7891 44.4068 36.4468 43.1327L34.0653 34.2407C34.0653 34.2407 34.0593 34.2228 34.0563 34.2079C33.5056 32.0645 35.5121 30.0581 37.6554 30.6088V30.6118Z" fill="#E67776"/>
</svg>
