<svg width="241" height="70" viewBox="0 0 241 70" fill="none" xmlns="http://www.w3.org/2000/svg">
  <!-- Top-Left Purple Diamond -->
  <path d="M19.786 12.7412C19.8009 12.7442 19.8069 12.7472 19.8188 12.7501L28.7108 15.1317C29.9849 15.471 30.9762 16.4683 31.3186 17.7365L33.7001 26.6285C33.7001 26.6285 33.7061 26.6463 33.709 26.6612C34.2598 28.8046 32.2533 30.811 30.11 30.2603C30.0951 30.2573 30.0861 30.2573 30.0772 30.2514L21.1852 27.8698C19.9111 27.5305 18.9198 26.5362 18.5774 25.2621L16.1959 16.3701C16.1959 16.3701 16.1899 16.3522 16.187 16.3373C15.6362 14.1939 17.6427 12.1875 19.786 12.7382V12.7412Z" fill="#7064A8"/>
  <!-- Bottom-Left Blue Diamond -->
  <path d="M19.786 30.6118C19.8009 30.6148 19.8069 30.6178 19.8188 30.6207L28.7108 33.0023C29.9849 33.3416 30.9762 34.3389 31.3186 35.6071L33.7001 44.4991C33.7001 44.4991 33.7061 44.5169 33.709 44.5318C34.2598 46.6752 32.2533 48.6816 30.11 48.1309C30.0951 48.1279 30.0861 48.1279 30.0772 48.122L21.1852 45.7404C19.9111 45.4011 18.9198 44.4068 18.5774 43.1327L16.1959 34.2407C16.1959 34.2407 16.1899 34.2228 16.187 34.2079C15.6362 32.0645 17.6427 30.0581 19.786 30.6088V30.6118Z" fill="#3C7BBB"/>
  <!-- Top-Right Yellow Diamond -->
  <path d="M37.6554 12.7412C37.6703 12.7442 37.6763 12.7472 37.6882 12.7501L46.5802 15.1317C47.8543 15.471 48.8456 16.4683 49.188 17.7365L51.5695 26.6285C51.5695 26.6285 51.5754 26.6463 51.5784 26.6612C52.1291 28.8046 50.1227 30.811 47.9793 30.2603C47.9644 30.2573 47.9555 30.2573 47.9466 30.2514L39.0546 27.8698C37.7805 27.5305 36.7891 26.5362 36.4468 25.2621L34.0653 16.3701C34.0653 16.3701 34.0593 16.3522 34.0563 16.3373C33.5056 14.1939 35.5121 12.1875 37.6554 12.7382V12.7412Z" fill="#F1C746"/>
  <!-- Bottom-Right Coral Diamond -->
  <path d="M37.6554 30.6118C37.6703 30.6148 37.6763 30.6178 37.6882 30.6207L46.5802 33.0023C47.8543 33.3416 48.8456 34.3389 49.188 35.6071L51.5695 44.4991C51.5695 44.4991 51.5754 44.5169 51.5784 44.5318C52.1291 46.6752 50.1227 48.6816 47.9793 48.1309C47.9644 48.1279 47.9555 48.1279 47.9466 48.122L39.0546 45.7404C37.7805 45.4011 36.7891 44.4068 36.4468 43.1327L34.0653 34.2407C34.0653 34.2407 34.0593 34.2228 34.0563 34.2079C33.5056 32.0645 35.5121 30.0581 37.6554 30.6088V30.6118Z" fill="#E67776"/>

  <!-- snap2insight Brand Typography -->
  <g fill="#1f2937">
    <!-- s -->
    <path d="M62.1548 35.3031H65.5604C65.5872 36.2379 66.4118 36.863 68.058 36.863C69.7876 36.863 70.5258 36.1545 70.5258 35.3031C70.5258 34.2255 69.2785 34.0826 67.7752 33.8832C65.6199 33.6004 62.4406 33.2312 62.4406 29.7959C62.4406 26.9291 64.6256 25.0566 68.0014 25.0566C71.3772 25.0566 73.5355 26.9857 73.6189 29.4535H70.2698C70.1835 28.6021 69.3916 28.0068 68.058 28.0068C66.5814 28.0068 65.8462 28.7153 65.8462 29.5399C65.8462 30.6175 67.1232 30.7872 68.6266 30.9866C70.4991 31.2427 73.9314 31.6118 73.9314 35.1007C73.9314 37.9377 71.6333 39.8102 68.058 39.8102C64.4827 39.8102 62.2411 37.9079 62.1548 35.3002V35.3031Z"/>
    <!-- n -->
    <path d="M75.2136 32.1567C75.2136 27.474 77.9941 25.0627 82.1349 25.0627C86.2758 25.0627 89.0592 27.4472 89.0592 32.1567V39.4472H85.6834V32.1567C85.6834 29.4894 84.2664 28.2123 82.1379 28.2123C80.0094 28.2123 78.5924 29.4894 78.5924 32.1567V39.4472H75.2166V32.1567H75.2136Z"/>
    <!-- a -->
    <path d="M90.4939 32.5797C90.4939 28.1263 93.6137 25.0601 98.0701 25.0601C102.527 25.0601 105.533 28.0399 105.533 32.55V39.4445H102.44V36.6938C101.589 38.7657 99.6896 39.8136 97.4747 39.8136C94.0692 39.8136 90.4939 37.3725 90.4939 32.5797ZM102.154 32.4368C102.154 29.969 100.508 28.2096 98.0403 28.2096C95.5725 28.2096 93.8965 29.969 93.8965 32.4368C93.8965 34.9047 95.5695 36.664 98.0403 36.664C100.511 36.664 102.154 34.9047 102.154 32.4368Z"/>
    <!-- p -->
    <path d="M107.35 32.5526C107.35 28.0129 110.416 25.0627 114.813 25.0627C119.21 25.0627 122.389 28.126 122.389 32.5824C122.389 37.3782 118.814 39.8163 115.409 39.8163C113.393 39.8163 111.72 38.9649 110.726 37.405V45.4337H107.35V32.5526ZM118.984 32.4395C118.984 29.9717 117.311 28.2123 114.84 28.2123C112.369 28.2123 110.726 29.9717 110.726 32.4395C110.726 34.9074 112.372 36.6667 114.84 36.6667C117.308 36.6667 118.984 34.9074 118.984 32.4395Z"/>
  </g>
  <!-- Digit 2 -->
  <path d="M123.068 36.5538L129.453 30.341C130.73 29.1204 131.582 27.9297 131.582 26.5662C131.582 24.8932 130.73 23.6727 129.027 23.6727C127.325 23.6727 126.446 24.8634 126.446 26.6228V27.0187H123.097V26.7627C123.097 22.988 125.369 20.5201 129.057 20.5201C132.746 20.5201 135.017 23.1011 135.017 26.593C135.017 29.0043 133.853 30.5077 131.954 32.3236L127.64 36.4079H134.791V39.4443H123.071V36.5508L123.068 36.5538Z" fill="#3C7BBB"/>
  <g fill="#1f2937">
    <!-- i -->
    <path d="M136.235 21.3742C136.235 20.0704 137.173 19.1058 138.476 19.1058C139.78 19.1058 140.718 20.0704 140.718 21.3742C140.718 22.6781 139.78 23.6158 138.476 23.6158C137.173 23.6158 136.235 22.6811 136.235 21.3742Z"/>
    <path d="M140.148 25.4319H136.772V39.4472H140.148V25.4319Z"/>
    <!-- n -->
    <path d="M142.279 32.1567C142.279 27.474 145.06 25.0627 149.204 25.0627C153.347 25.0627 156.128 27.4472 156.128 32.1567V39.4472H152.752V32.1567C152.752 29.4894 151.332 28.2123 149.207 28.2123C147.081 28.2123 145.661 29.4894 145.661 32.1567V39.4472H142.285V32.1567H142.279Z"/>
    <!-- s -->
    <path d="M157.408 35.3031H160.814C160.84 36.2379 161.665 36.863 163.311 36.863C165.041 36.863 165.779 36.1545 165.779 35.3031C165.779 34.2255 164.532 34.0826 163.028 33.8832C160.873 33.6004 157.694 33.2312 157.694 29.7959C157.694 26.9291 159.879 25.0566 163.255 25.0566C166.63 25.0566 168.789 26.9857 168.872 29.4535H165.523C165.437 28.6021 164.645 28.0068 163.311 28.0068C161.835 28.0068 161.099 28.7153 161.099 29.5399C161.099 30.6175 162.376 30.7872 163.88 30.9866C165.752 31.2427 169.185 31.6118 169.185 35.1007C169.185 37.9377 166.886 39.8102 163.311 39.8102C159.736 39.8102 157.494 37.9079 157.408 35.3002V35.3031Z"/>
    <!-- i -->
    <path d="M170.051 21.3742C170.051 20.0704 170.989 19.1058 172.293 19.1058C173.597 19.1058 174.534 20.0704 174.534 21.3742C174.534 22.6781 173.597 23.6158 172.293 23.6158C170.989 23.6158 170.051 22.6811 170.051 21.3742Z"/>
    <path d="M173.968 25.4319H170.593V39.4472H173.968V25.4319Z"/>
    <!-- g -->
    <path d="M176.188 40.9803H179.594C180.162 42.2841 181.523 42.8825 183.312 42.8825C185.81 42.8825 187.37 41.7185 187.37 38.4558V37.2353C186.405 38.7952 184.732 39.6466 182.63 39.6466C179.281 39.6466 175.706 37.405 175.706 32.4395C175.706 28.1825 178.826 25.0627 183.253 25.0627C187.679 25.0627 190.742 28.0129 190.742 32.5526V38.3427C190.742 43.7041 187.423 45.8058 183.309 45.8058C179.82 45.8058 177.066 44.3025 176.188 40.9832V40.9803ZM187.367 32.4395C187.367 29.9717 185.72 28.2123 183.253 28.2123C180.785 28.2123 179.109 29.9717 179.109 32.4395C179.109 34.9074 180.782 36.497 183.253 36.497C185.723 36.497 187.367 34.9074 187.367 32.4395Z"/>
    <!-- h -->
    <path d="M192.666 19.3025H196.042V27.3878C196.98 25.8845 198.427 25.0599 200.213 25.0599C203.449 25.0599 206.512 27.1586 206.512 32.1538V39.4443H203.136V32.1538C203.136 29.4865 201.716 28.2094 199.591 28.2094C197.465 28.2094 196.045 29.5431 196.045 32.1538V39.4443H192.669V19.2996L192.666 19.3025Z"/>
    <!-- t -->
    <path d="M208.332 34.0561V20.4666H211.708V25.432H218.941V28.4953H211.708V34.0561C211.708 35.9286 212.672 36.6669 214.062 36.6669C215.453 36.6669 216.417 35.9584 216.417 34.0561V33.687H219.793V34.0561C219.793 37.944 217.465 39.8164 214.062 39.8164C210.66 39.8164 208.332 37.944 208.332 34.0561Z"/>
  </g>

  <!-- Sub-label -->
  <text x="62" y="54" font-family="-apple-system, BlinkMacSystemFont, 'Segoe UI', Roboto, 'Helvetica Neue', Arial, sans-serif" font-size="7" font-weight="700" fill="#3C7BBB" letter-spacing="1.2">KNOWLEDGE ARCHITECTURE</text>
</svg>
